<mxfile host="65bd71144e">
    <diagram id="DCk2_kTO-tZwdwr6rNhV" name="PÃ¡gina-1">
        <mxGraphModel dx="630" dy="411" grid="1" gridSize="10" guides="1" tooltips="1" connect="1" arrows="1" fold="1" page="1" pageScale="1" pageWidth="827" pageHeight="1169" math="0" shadow="0">
            <root>
                <mxCell id="0"/>
                <mxCell id="1" parent="0"/>
                <mxCell id="4" value="" style="edgeStyle=none;html=1;" edge="1" parent="1" source="2" target="3">
                    <mxGeometry relative="1" as="geometry"/>
                </mxCell>
                <mxCell id="2" value="Inicio" style="rounded=1;whiteSpace=wrap;html=1;fontSize=17;fillColor=#60a917;fontColor=#ffffff;strokeColor=#2D7600;" vertex="1" parent="1">
                    <mxGeometry x="250" y="20" width="120" height="60" as="geometry"/>
                </mxCell>
                <mxCell id="7" value="" style="edgeStyle=none;html=1;fontSize=17;" edge="1" parent="1" source="3" target="5">
                    <mxGeometry relative="1" as="geometry"/>
                </mxCell>
                <mxCell id="3" value="X , Y" style="shape=parallelogram;perimeter=parallelogramPerimeter;whiteSpace=wrap;html=1;fixedSize=1;fontSize=14;fillColor=#0050ef;fontColor=#ffffff;strokeColor=#001DBC;" vertex="1" parent="1">
                    <mxGeometry x="250" y="100" width="120" height="60" as="geometry"/>
                </mxCell>
                <mxCell id="9" value="" style="edgeStyle=none;html=1;fontSize=17;" edge="1" parent="1" source="5" target="8">
                    <mxGeometry relative="1" as="geometry"/>
                </mxCell>
                <mxCell id="5" value="S : X+Y&lt;br style=&quot;font-size: 15px;&quot;&gt;R : X-Y&lt;br style=&quot;font-size: 15px;&quot;&gt;M : X * Y&lt;br style=&quot;font-size: 15px;&quot;&gt;D : X/Y&lt;br style=&quot;font-size: 15px;&quot;&gt;DE : X // Y&lt;br style=&quot;font-size: 15px;&quot;&gt;MOD : X % Y&lt;br style=&quot;font-size: 15px;&quot;&gt;P : X ** Y" style="rounded=0;whiteSpace=wrap;html=1;fontSize=15;fillColor=#a20025;fontColor=#ffffff;strokeColor=#6F0000;" vertex="1" parent="1">
                    <mxGeometry x="220" y="190" width="180" height="150" as="geometry"/>
                </mxCell>
                <mxCell id="11" value="" style="edgeStyle=none;html=1;fontSize=17;" edge="1" parent="1" source="8" target="10">
                    <mxGeometry relative="1" as="geometry"/>
                </mxCell>
                <mxCell id="8" value="S, R, M, D, DE&lt;br style=&quot;font-size: 15px;&quot;&gt;MOD, P" style="shape=document;whiteSpace=wrap;html=1;boundedLbl=1;fontSize=15;fillColor=#6a00ff;fontColor=#ffffff;strokeColor=#3700CC;" vertex="1" parent="1">
                    <mxGeometry x="250" y="370" width="120" height="80" as="geometry"/>
                </mxCell>
                <mxCell id="10" value="FIN" style="rounded=1;whiteSpace=wrap;html=1;fontSize=17;fillColor=#60a917;fontColor=#ffffff;strokeColor=#2D7600;" vertex="1" parent="1">
                    <mxGeometry x="250" y="480" width="120" height="60" as="geometry"/>
                </mxCell>
            </root>
        </mxGraphModel>
    </diagram>
</mxfile>